<svg id="Camada_1" data-name="Camada 1" xmlns="http://www.w3.org/2000/svg" viewBox="0 0 24.85 9.97"><defs><style>.cls-1{fill:#e73c2e;}</style></defs><path class="cls-1" d="M20,.3c.16,0,.31,0,.47,0s.21,0,.31,0a5.06,5.06,0,0,1,1.63.31,3.63,3.63,0,0,1,1.39,1A3.4,3.4,0,0,1,24.57,3a.13.13,0,0,1,.1,0s0,.1,0,.15.12.11.13.2c0,.32-.05.65-.08,1L24,4.29c0-.32.05-.64.08-1,0-.09.17-.14.19-.25A.12.12,0,0,1,24.3,3a3.28,3.28,0,0,0-.82-1.39A3.37,3.37,0,0,0,22,.74,5,5,0,0,0,20.53.53a6.47,6.47,0,0,0-2.87.7c0,.06,0,.12-.05.15a.25.25,0,0,0-.11.12c0,.06-.05.14-.12.17L16.57,2l-.36-.76.85-.38c.06,0,.13,0,.19,0a.29.29,0,0,0,.16,0c.06,0,.1,0,.15.07A6.81,6.81,0,0,1,20,.3Z" transform="translate(-0.27 -0.27)"/><path class="cls-1" d="M15.64,1.53l.52-.22L16.5,2l-.74.33a.61.61,0,0,1-.17.07c-.09,0-.15-.06-.24,0a.53.53,0,0,1-.13,0,.34.34,0,0,1-.09-.08,4.28,4.28,0,0,0-.86.54,2.17,2.17,0,0,0-.52.57,1.78,1.78,0,0,0-.25.71,1.53,1.53,0,0,0,0,.37,2.58,2.58,0,0,1,.19.37.31.31,0,0,0,.09.11c0-.25,0-.49,0-.74a1,1,0,0,1,1.42-.82,1,1,0,0,1,.51.44,1.24,1.24,0,0,1,.13.5V7.48a3.53,3.53,0,0,1,0,.46,1,1,0,0,1-2.06-.1V7.12a.94.94,0,0,0-.06.15,2.51,2.51,0,0,1-.68,1,2.33,2.33,0,0,1-1.23.54,3,3,0,0,1-1.07,0,2.2,2.2,0,0,1-.8-.35,2.78,2.78,0,0,1-.41-.36,4.88,4.88,0,0,1-1,.9,6.54,6.54,0,0,1-3.09,1.1,3.85,3.85,0,0,1-.59,0,4.05,4.05,0,0,1-3-1.45c-.06,0-.14,0-.17,0a.28.28,0,0,0-.13-.11c-.06,0-.14,0-.17-.1L1,7.62l.72-.39L2.08,8c.06.1-.07.21,0,.31a.14.14,0,0,1,0,.14c.1.11.2.22.31.32a3.73,3.73,0,0,0,1.5.85,4.71,4.71,0,0,0,2.24,0A6.66,6.66,0,0,0,7.9,9a6.27,6.27,0,0,0,1.27-.91l.21-.21A2.39,2.39,0,0,1,9,7L9,7a2.4,2.4,0,0,1-.31.82,2.25,2.25,0,0,1-.5.57,2.08,2.08,0,0,1-1.26.47,2.17,2.17,0,0,1-.36,0,2.2,2.2,0,0,1-1.38-.53,2.33,2.33,0,0,1-.77-1.5,2.29,2.29,0,0,1,0-.37,1.11,1.11,0,0,1,.29-.64,1,1,0,0,1,.69-.3,1.26,1.26,0,0,1,.47.08A5.75,5.75,0,0,0,5,4.29a3.77,3.77,0,0,0-.66-.6,2.85,2.85,0,0,0-1.68-.56,2.7,2.7,0,0,0-.69.12,2.2,2.2,0,0,0-.91.6,1.91,1.91,0,0,0-.5,1.48,2.27,2.27,0,0,0,.21.76c.06,0,.14,0,.17,0a.31.31,0,0,0,.16.12c.05,0,.12,0,.14.09l.42.83-.72.38C.77,7.25.62,7,.47,6.68c0-.08,0-.16,0-.23a.27.27,0,0,0,0-.13.14.14,0,0,1,0-.11A2.54,2.54,0,0,1,.27,5,2,2,0,0,1,.71,3.84a2.42,2.42,0,0,1,1.68-.91,2.71,2.71,0,0,1,1.26.16,3.72,3.72,0,0,1,1.48,1A6.24,6.24,0,0,1,6.26,5.93a1.26,1.26,0,0,1,.13.26,1.57,1.57,0,0,1,.05.37.19.19,0,0,0,.14.18.39.39,0,0,0,.24,0,.22.22,0,0,0,.1-.21V4.64a2.36,2.36,0,0,1,0-.46,1,1,0,0,1,1-.83,1.07,1.07,0,0,1,.67.21A1,1,0,0,1,9,4.31c0,.27,0,.54,0,.81,0-.07.05-.15.08-.22a2.32,2.32,0,0,1,2.07-1.52,2.87,2.87,0,0,1,1,.1,2.07,2.07,0,0,1,.76.37,2.42,2.42,0,0,1,.33.31,2,2,0,0,1,.22-.71,2.71,2.71,0,0,1,.85-.9,4.77,4.77,0,0,1,.73-.42.13.13,0,0,1,0-.17c.1-.05.1-.18.18-.26ZM7.87,3.68a.71.71,0,0,0-.63.67c0,.74,0,1.47,0,2.2A.53.53,0,0,1,7.07,7a.68.68,0,0,1-.5.11.48.48,0,0,1-.31-.15.72.72,0,0,1-.15-.42.7.7,0,0,0-.41-.63.76.76,0,0,0-.42-.06.73.73,0,0,0-.51.37.93.93,0,0,0-.07.52A2,2,0,0,0,5.3,8,1.63,1.63,0,0,0,6,8.4a2.28,2.28,0,0,0,.57.1,2.22,2.22,0,0,0,1-.2,1.81,1.81,0,0,0,.62-.51A2.14,2.14,0,0,0,8.63,7a2.92,2.92,0,0,0,0-.51V4.37a.69.69,0,0,0-.28-.56A.7.7,0,0,0,7.87,3.68Zm2.7.15a1.83,1.83,0,0,0-.69.43,2.22,2.22,0,0,0-.64,1.39c0,.2,0,.41,0,.61a2.42,2.42,0,0,0,.06.66,2.2,2.2,0,0,0,.31.7,2.57,2.57,0,0,1,1.06-.72A1.35,1.35,0,0,1,11.72,7a1,1,0,0,1,.52.67.75.75,0,0,1-.1.55,1.07,1.07,0,0,1-.28.28,2.07,2.07,0,0,0,.55-.17,2,2,0,0,0,.83-.78,2.21,2.21,0,0,0,.31-1c0-.24,0-.49,0-.73a2.53,2.53,0,0,0-.09-.55,2.09,2.09,0,0,0-.38-.76,2,2,0,0,0-.56-.5,2.18,2.18,0,0,0-.78-.26A2.75,2.75,0,0,0,10.57,3.83ZM15.09,5.5a1.43,1.43,0,0,1-1,0c0,.11,0,.23,0,.34v2a.71.71,0,0,0,1.21.52.68.68,0,0,0,.21-.45V5.21A1.42,1.42,0,0,1,15.09,5.5Z" transform="translate(-0.27 -0.27)"/><path class="cls-1" d="M16.4,3.51a1.06,1.06,0,0,1,.9-.11,1,1,0,0,1,.48.35c.23.3.46.62.7.92a3.38,3.38,0,0,1,0-.55A1,1,0,0,1,19,3.49a1,1,0,0,1,.69-.13,1.06,1.06,0,0,1,.68.4,1,1,0,0,1,.18.45,1.94,1.94,0,0,1,0,.24V7.68a2.83,2.83,0,0,1,0,.29,1,1,0,0,1-.56.75,1.11,1.11,0,0,1-.56.12,4,4,0,0,0,1.39.93,2.73,2.73,0,0,0,1,.21,2,2,0,0,0,1.77-.77s0,0,0-.08a.23.23,0,0,0,0-.14c0-.06-.1-.1-.1-.18,0-.3.07-.6.11-.9L24.3,8c0,.29-.08.58-.11.88,0,.09-.12.12-.17.2s0,.12-.08.14-.11,0-.13.06a2.11,2.11,0,0,1-1.28.86A3,3,0,0,1,20.79,10a4.5,4.5,0,0,1-1.5-1c-.1-.09-.19-.2-.29-.3s-.17-.2-.26-.29a2.78,2.78,0,0,1-.27-.33L18,7.49A3,3,0,0,1,18,8a1,1,0,0,1-.48.66,1,1,0,0,1-.86.1,1,1,0,0,1-.71-.87c0-.16,0-.31,0-.46V4.37A1,1,0,0,1,16.4,3.51Zm.07.36a.72.72,0,0,0-.22.5V7.8a.76.76,0,0,0,.25.53.73.73,0,0,0,.83.07.69.69,0,0,0,.34-.58V6.61a13.35,13.35,0,0,1,1.25,1.56.8.8,0,0,0,.15.17.67.67,0,0,0,.45.16.75.75,0,0,0,.61-.33.68.68,0,0,0,.1-.42V4.52a1.06,1.06,0,0,0,0-.35A.7.7,0,0,0,20,3.81a.75.75,0,0,0-.71-.09.78.78,0,0,0-.3.24.75.75,0,0,0-.14.41c0,.39,0,.79,0,1.19a13.92,13.92,0,0,1-1.18-1.48,1.31,1.31,0,0,0-.24-.28A.71.71,0,0,0,16.47,3.87Z" transform="translate(-0.27 -0.27)"/><path class="cls-1" d="M25.09,5.29a2,2,0,0,0-.25-.83l-1-.1a2.06,2.06,0,0,0-.46.73,4.07,4.07,0,0,0-.29,1.69,2.28,2.28,0,0,0,.25,1s.05,0,.07,0l.91.12a2,2,0,0,0,.47-.72,3.59,3.59,0,0,0,.26-.92A3.79,3.79,0,0,0,25.09,5.29Z" transform="translate(-0.27 -0.27)"/></svg>